G04 Layer: BottomLayer*
G04 EasyEDA v6.1.52, Mon, 22 Jul 2019 07:30:32 GMT*
G04 48bfd73402ea4c338a6de7f667507198,62ece946848449f3960951035e99d9e0,10*
G04 Gerber Generator version 0.2*
G04 Scale: 100 percent, Rotated: No, Reflected: No *
G04 Dimensions in millimeters *
G04 leading zeros omitted , absolute positions ,3 integer and 3 decimal *
%FSLAX33Y33*%
%MOMM*%
G90*
G71D02*

%ADD10C,0.159995*%
%ADD12C,0.610006*%
%ADD19C,1.397000*%
%ADD20C,1.799996*%
%ADD21R,1.799996X1.799996*%
%ADD22R,1.092200X2.159000*%
%ADD23R,3.505200X2.159000*%
%ADD24R,0.909320X1.219200*%
%ADD25R,0.799998X0.999998*%
%ADD26R,1.600200X1.800860*%
%ADD27R,1.160018X1.450010*%

%LPD*%
G54D10*
G01X2540Y5461D02*
G01X3581Y5461D01*
G01X13596Y19042D02*
G01X14221Y19667D01*
G01X33418Y19667D01*
G01X34417Y18669D01*
G01X12580Y14732D02*
G01X13462Y15613D01*
G01X13462Y18907D01*
G01X13596Y19042D01*
G01X3581Y5461D02*
G01X3581Y5981D01*
G01X5836Y8237D01*
G01X8229Y8237D01*
G01X9047Y9055D01*
G01X9047Y12910D01*
G01X10040Y13903D01*
G01X10040Y17523D01*
G01X11910Y19392D01*
G01X13246Y19392D01*
G01X13596Y19042D01*
G01X34417Y18669D02*
G01X37754Y15331D01*
G01X43525Y15331D01*
G01X43525Y15331D01*
G01X11938Y14732D02*
G01X12580Y14732D01*
G01X11851Y18542D02*
G01X11267Y17960D01*
G01X11267Y17503D01*
G01X10363Y16598D01*
G01X10363Y13629D01*
G01X10040Y13307D01*
G01X10040Y9126D01*
G01X9182Y8267D01*
G01X6375Y5461D02*
G01X9182Y8267D01*
G01X15506Y10287D02*
G01X15506Y5811D01*
G01X13878Y4183D01*
G01X11932Y4183D01*
G01X11785Y4330D01*
G01X11785Y5666D01*
G01X9182Y8267D01*
G01X15506Y10287D02*
G01X16027Y10287D01*
G01X14986Y10287D02*
G01X15506Y10287D01*
G01X12547Y18542D02*
G01X11851Y18542D01*
G01X5334Y5461D02*
G01X6375Y5461D01*
G01X16027Y10287D02*
G01X16027Y11328D01*
G01X16827Y12128D01*
G01X17279Y18415D02*
G01X20627Y15067D01*
G01X31036Y15067D01*
G01X33078Y17106D01*
G01X34942Y17106D01*
G01X37231Y14820D01*
G01X37231Y6626D01*
G01X17279Y18415D02*
G01X16931Y18415D01*
G01X17627Y18415D02*
G01X17279Y18415D01*
G01X13868Y5334D02*
G01X13868Y11285D01*
G01X16931Y14345D01*
G01X16931Y18415D01*
G01X12827Y5334D02*
G01X13868Y5334D01*
G01X1651Y9906D02*
G01X1651Y10873D01*
G01X4178Y19227D02*
G01X2184Y19227D01*
G01X2184Y19227D02*
G01X1104Y18148D01*
G01X1104Y11419D01*
G01X1651Y10873D01*
G01X4315Y19227D02*
G01X4178Y19227D01*
G01X14376Y18415D02*
G01X14376Y17564D01*
G01X14376Y17564D02*
G01X13825Y17010D01*
G01X13825Y14155D01*
G01X10751Y11082D01*
G01X10751Y11049D01*
G01X6096Y9906D02*
G01X6096Y10873D01*
G01X5275Y11051D02*
G01X5453Y10873D01*
G01X6096Y10873D01*
G01X4178Y13195D02*
G01X5275Y12100D01*
G01X5275Y11051D01*
G01X9296Y18542D02*
G01X6858Y18542D01*
G01X6172Y19227D01*
G01X4315Y19227D02*
G01X6172Y19227D01*
G01X36703Y2032D02*
G01X35537Y866D01*
G01X31021Y866D01*
G01X30353Y1534D01*
G01X30353Y7493D01*
G01X26797Y11049D01*
G01X4178Y13030D02*
G01X4178Y13195D01*
G01X4178Y13609D02*
G01X4178Y14351D01*
G01X4178Y13609D02*
G01X4178Y13195D01*
G01X6172Y19227D02*
G01X6172Y16347D01*
G01X4178Y14351D01*
G01X26797Y16129D02*
G01X23660Y19265D01*
G01X17030Y19265D01*
G01X14363Y16598D01*
G01X14363Y14236D01*
G01X13233Y13108D01*
G01X13233Y10287D01*
G01X12192Y10287D02*
G01X13233Y10287D01*
G01X26797Y13589D02*
G01X17391Y4183D01*
G01X15506Y4183D01*
G01X15506Y4051D01*
G01X15316Y3860D01*
G01X11569Y3860D01*
G01X11181Y4249D01*
G01X11181Y4706D01*
G01X11074Y4813D01*
G01X11074Y5334D01*
G01X10033Y5334D02*
G01X11074Y5334D01*
G01X34163Y2032D02*
G01X33398Y2796D01*
G01X33398Y12570D01*
G01X34417Y13589D01*
G01X31623Y2032D02*
G01X31623Y13335D01*
G01X34417Y16129D01*
G01X1892Y13030D02*
G01X1892Y14351D01*
G01X3258Y17485D02*
G01X1892Y16118D01*
G01X1892Y14351D01*
G01X1892Y14351D01*
G01X3342Y8575D02*
G01X2679Y9237D01*
G01X2679Y10919D01*
G01X1892Y11709D01*
G01X8128Y8938D02*
G01X7764Y8575D01*
G01X3342Y8575D01*
G01X3342Y8575D02*
G01X1465Y6697D01*
G01X1465Y4386D01*
G01X3820Y2032D01*
G01X26543Y2032D01*
G01X1892Y13030D02*
G01X1892Y11709D01*
G01X8128Y9906D02*
G01X8128Y8938D01*
G01X3683Y9906D02*
G01X4505Y9906D01*
G01X6489Y13690D02*
G01X6954Y13225D01*
G01X6954Y8983D01*
G01X6908Y8938D01*
G01X5415Y8938D01*
G01X4505Y9850D01*
G01X4505Y9906D01*
G01X6489Y13690D02*
G01X6489Y14351D01*
G01X6489Y13030D02*
G01X6489Y13690D01*
G01X9398Y14732D02*
G01X6870Y14732D01*
G01X6489Y14351D01*
G54D22*
G01X6489Y13030D03*
G01X4178Y13030D03*
G01X1892Y13030D03*
G54D23*
G01X4178Y19227D03*
G54D24*
G01X9296Y18542D03*
G01X12547Y18542D03*
G01X14376Y18415D03*
G01X17627Y18415D03*
G54D25*
G01X11938Y14732D03*
G01X9398Y14732D03*
G54D26*
G01X14986Y10287D03*
G01X12192Y10287D03*
G01X5334Y5461D03*
G01X2540Y5461D03*
G01X12827Y5334D03*
G01X10033Y5334D03*
G54D27*
G01X3683Y9906D03*
G01X1651Y9906D03*
G01X8128Y9906D03*
G01X6096Y9906D03*
G36*
G01X27495Y19367D02*
G01X27495Y17970D01*
G01X26098Y17970D01*
G01X26098Y19367D01*
G01X27495Y19367D01*
G37*
G54D19*
G01X26797Y16129D03*
G01X26797Y13589D03*
G01X26797Y11049D03*
G01X34417Y11049D03*
G01X34417Y13589D03*
G01X34417Y16129D03*
G01X34417Y18669D03*
G54D20*
G01X39243Y2032D03*
G01X36703Y2032D03*
G01X34163Y2032D03*
G01X31623Y2032D03*
G01X29083Y2032D03*
G54D21*
G01X26543Y2032D03*
G54D12*
G01X43525Y15331D03*
G01X16827Y12128D03*
G01X37231Y6626D03*
G01X10751Y11049D03*
G01X5275Y11051D03*
G01X3258Y17485D03*
M00*
M02*
