G04 Layer: BottomSilkLayer*
G04 EasyEDA v6.1.52, Mon, 22 Jul 2019 07:30:32 GMT*
G04 48bfd73402ea4c338a6de7f667507198,62ece946848449f3960951035e99d9e0,10*
G04 Gerber Generator version 0.2*
G04 Scale: 100 percent, Rotated: No, Reflected: No *
G04 Dimensions in millimeters *
G04 leading zeros omitted , absolute positions ,3 integer and 3 decimal *
%FSLAX33Y33*%
%MOMM*%
G90*
G71D02*

%ADD31C,0.254000*%
%ADD32C,0.152400*%
%ADD34C,0.200660*%
%ADD35C,0.199898*%

%LPD*%
G54D34*
G01X835Y14500D02*
G01X7536Y14500D01*
G01X7536Y17749D01*
G01X835Y17749D01*
G01X835Y14500D01*
G54D31*
G01X11099Y18542D02*
G01X10515Y18948D01*
G01X10515Y18948D02*
G01X10515Y18135D01*
G01X10515Y18135D02*
G01X11099Y18542D01*
G01X12268Y19329D02*
G01X9575Y19329D01*
G01X9575Y17754D02*
G01X12268Y17754D01*
G01X16179Y18415D02*
G01X15595Y18821D01*
G01X15595Y18821D02*
G01X15595Y18008D01*
G01X15595Y18008D02*
G01X16179Y18415D01*
G01X17348Y19202D02*
G01X14655Y19202D01*
G01X14655Y17627D02*
G01X17348Y17627D01*
G01X11557Y15392D02*
G01X11176Y15392D01*
G01X11176Y15392D02*
G01X9779Y15392D01*
G01X11557Y14071D02*
G01X11176Y14071D01*
G01X11176Y14071D02*
G01X9779Y14071D01*
G01X10167Y15332D02*
G01X10167Y14111D01*
G01X14351Y11557D02*
G01X16129Y11557D01*
G01X16129Y9017D01*
G01X14351Y9017D01*
G01X12827Y9017D02*
G01X11049Y9017D01*
G01X11049Y11557D01*
G01X12827Y11557D01*
G01X4699Y6731D02*
G01X6477Y6731D01*
G01X6477Y4191D01*
G01X4699Y4191D01*
G01X3175Y4191D02*
G01X1397Y4191D01*
G01X1397Y6731D01*
G01X3175Y6731D01*
G01X12192Y6604D02*
G01X13970Y6604D01*
G01X13970Y4064D01*
G01X12192Y4064D01*
G01X10668Y4064D02*
G01X8890Y4064D01*
G01X8890Y6604D01*
G01X10668Y6604D01*
G54D35*
G01X2112Y8871D02*
G01X792Y8871D01*
G01X792Y10941D01*
G01X2112Y10941D01*
G01X3244Y8871D02*
G01X4564Y8871D01*
G01X4564Y10941D01*
G01X3244Y10941D01*
G01X6557Y8871D02*
G01X5237Y8871D01*
G01X5237Y10941D01*
G01X6557Y10941D01*
G01X7689Y8871D02*
G01X9009Y8871D01*
G01X9009Y10941D01*
G01X7689Y10941D01*
G54D32*
G01X4203Y21650D02*
G01X4203Y20873D01*
G01X4152Y20716D01*
G01X4048Y20612D01*
G01X3891Y20561D01*
G01X3787Y20561D01*
G01X3632Y20612D01*
G01X3528Y20716D01*
G01X3477Y20873D01*
G01X3477Y21650D01*
G01X3030Y21650D02*
G01X2458Y21650D01*
G01X2768Y21236D01*
G01X2613Y21236D01*
G01X2509Y21183D01*
G01X2458Y21132D01*
G01X2405Y20977D01*
G01X2405Y20873D01*
G01X2458Y20716D01*
G01X2562Y20612D01*
G01X2717Y20561D01*
G01X2872Y20561D01*
G01X3030Y20612D01*
G01X3081Y20665D01*
G01X3134Y20769D01*
G01X10922Y20673D02*
G01X10922Y19583D01*
G01X10922Y20673D02*
G01X10558Y20673D01*
G01X10401Y20622D01*
G01X10299Y20518D01*
G01X10246Y20413D01*
G01X10195Y20259D01*
G01X10195Y19999D01*
G01X10246Y19842D01*
G01X10299Y19738D01*
G01X10401Y19634D01*
G01X10558Y19583D01*
G01X10922Y19583D01*
G01X9799Y20413D02*
G01X9799Y20467D01*
G01X9748Y20571D01*
G01X9695Y20622D01*
G01X9591Y20673D01*
G01X9385Y20673D01*
G01X9281Y20622D01*
G01X9227Y20571D01*
G01X9177Y20467D01*
G01X9177Y20363D01*
G01X9227Y20259D01*
G01X9331Y20101D01*
G01X9852Y19583D01*
G01X9123Y19583D01*
G01X16002Y20546D02*
G01X16002Y19456D01*
G01X16002Y20546D02*
G01X15638Y20546D01*
G01X15481Y20495D01*
G01X15379Y20391D01*
G01X15326Y20286D01*
G01X15275Y20132D01*
G01X15275Y19872D01*
G01X15326Y19715D01*
G01X15379Y19611D01*
G01X15481Y19507D01*
G01X15638Y19456D01*
G01X16002Y19456D01*
G01X14932Y20340D02*
G01X14828Y20391D01*
G01X14671Y20546D01*
G01X14671Y19456D01*
G01X10668Y16736D02*
G01X10668Y15646D01*
G01X10668Y16736D02*
G01X10304Y16736D01*
G01X10147Y16685D01*
G01X10045Y16581D01*
G01X9992Y16477D01*
G01X9941Y16322D01*
G01X9941Y16063D01*
G01X9992Y15905D01*
G01X10045Y15801D01*
G01X10147Y15697D01*
G01X10304Y15646D01*
G01X10668Y15646D01*
G01X9494Y16736D02*
G01X8923Y16736D01*
G01X9232Y16322D01*
G01X9077Y16322D01*
G01X8973Y16268D01*
G01X8923Y16218D01*
G01X8869Y16063D01*
G01X8869Y15959D01*
G01X8923Y15801D01*
G01X9027Y15697D01*
G01X9182Y15646D01*
G01X9337Y15646D01*
G01X9494Y15697D01*
G01X9545Y15750D01*
G01X9598Y15854D01*
G01X13589Y12900D02*
G01X13589Y11811D01*
G01X13589Y12900D02*
G01X13121Y12900D01*
G01X12966Y12849D01*
G01X12913Y12799D01*
G01X12862Y12694D01*
G01X12862Y12590D01*
G01X12913Y12486D01*
G01X12966Y12433D01*
G01X13121Y12382D01*
G01X13589Y12382D01*
G01X13225Y12382D02*
G01X12862Y11811D01*
G01X12466Y12641D02*
G01X12466Y12694D01*
G01X12415Y12799D01*
G01X12362Y12849D01*
G01X12258Y12900D01*
G01X12052Y12900D01*
G01X11948Y12849D01*
G01X11894Y12799D01*
G01X11844Y12694D01*
G01X11844Y12590D01*
G01X11894Y12486D01*
G01X11998Y12329D01*
G01X12519Y11811D01*
G01X11790Y11811D01*
G01X3937Y8074D02*
G01X3937Y6985D01*
G01X3937Y8074D02*
G01X3469Y8074D01*
G01X3314Y8023D01*
G01X3261Y7973D01*
G01X3210Y7868D01*
G01X3210Y7764D01*
G01X3261Y7660D01*
G01X3314Y7607D01*
G01X3469Y7556D01*
G01X3937Y7556D01*
G01X3573Y7556D02*
G01X3210Y6985D01*
G01X2763Y8074D02*
G01X2192Y8074D01*
G01X2501Y7660D01*
G01X2346Y7660D01*
G01X2242Y7607D01*
G01X2192Y7556D01*
G01X2138Y7401D01*
G01X2138Y7297D01*
G01X2192Y7139D01*
G01X2296Y7035D01*
G01X2451Y6985D01*
G01X2606Y6985D01*
G01X2763Y7035D01*
G01X2814Y7089D01*
G01X2867Y7193D01*
G01X11430Y7947D02*
G01X11430Y6858D01*
G01X11430Y7947D02*
G01X10962Y7947D01*
G01X10807Y7896D01*
G01X10754Y7846D01*
G01X10703Y7741D01*
G01X10703Y7637D01*
G01X10754Y7533D01*
G01X10807Y7480D01*
G01X10962Y7429D01*
G01X11430Y7429D01*
G01X11066Y7429D02*
G01X10703Y6858D01*
G01X10360Y7741D02*
G01X10256Y7792D01*
G01X10099Y7947D01*
G01X10099Y6858D01*
G01X2141Y12027D02*
G01X2194Y12131D01*
G01X2298Y12235D01*
G01X2400Y12286D01*
G01X2608Y12286D01*
G01X2712Y12235D01*
G01X2817Y12131D01*
G01X2870Y12027D01*
G01X2921Y11869D01*
G01X2921Y11610D01*
G01X2870Y11455D01*
G01X2817Y11351D01*
G01X2712Y11247D01*
G01X2608Y11194D01*
G01X2400Y11194D01*
G01X2298Y11247D01*
G01X2194Y11351D01*
G01X2141Y11455D01*
G01X1798Y12077D02*
G01X1694Y12131D01*
G01X1539Y12286D01*
G01X1539Y11194D01*
G01X6586Y12027D02*
G01X6639Y12131D01*
G01X6743Y12235D01*
G01X6845Y12286D01*
G01X7053Y12286D01*
G01X7157Y12235D01*
G01X7262Y12131D01*
G01X7315Y12027D01*
G01X7366Y11869D01*
G01X7366Y11610D01*
G01X7315Y11455D01*
G01X7262Y11351D01*
G01X7157Y11247D01*
G01X7053Y11194D01*
G01X6845Y11194D01*
G01X6743Y11247D01*
G01X6639Y11351D01*
G01X6586Y11455D01*
G01X6192Y12027D02*
G01X6192Y12077D01*
G01X6139Y12182D01*
G01X6088Y12235D01*
G01X5984Y12286D01*
G01X5776Y12286D01*
G01X5672Y12235D01*
G01X5621Y12182D01*
G01X5567Y12077D01*
G01X5567Y11973D01*
G01X5621Y11869D01*
G01X5725Y11714D01*
G01X6243Y11194D01*
G01X5517Y11194D01*
M00*
M02*
