G04 Layer: TopSilkLayer*
G04 EasyEDA v6.1.52, Mon, 22 Jul 2019 07:30:32 GMT*
G04 48bfd73402ea4c338a6de7f667507198,62ece946848449f3960951035e99d9e0,10*
G04 Gerber Generator version 0.2*
G04 Scale: 100 percent, Rotated: No, Reflected: No *
G04 Dimensions in millimeters *
G04 leading zeros omitted , absolute positions ,3 integer and 3 decimal *
%FSLAX33Y33*%
%MOMM*%
G90*
G71D02*

%ADD11C,0.203200*%
%ADD28C,0.228600*%
%ADD29C,0.202999*%
%ADD30C,0.200000*%
%ADD31C,0.254000*%
%ADD32C,0.152400*%
%ADD33C,0.177800*%

%LPD*%
G54D28*
G01X28067Y19939D02*
G01X28067Y9779D01*
G01X33147Y9779D01*
G01X33147Y19939D01*
G01X28067Y19939D01*
G54D11*
G01X27178Y3302D02*
G01X25273Y3302D01*
G01X25273Y762D01*
G01X40513Y762D01*
G01X40513Y3302D01*
G54D29*
G01X40513Y3302D02*
G01X27178Y3302D01*
G54D30*
G01X1521Y19295D02*
G01X1521Y17295D01*
G01X1524Y3304D02*
G01X1524Y5304D01*
G01X1524Y3304D02*
G01X2023Y3304D01*
G01X1521Y19295D02*
G01X2521Y19295D01*
G01X18023Y19304D02*
G01X25523Y19304D01*
G01X25523Y3304D01*
G01X18023Y3304D01*
G01X20523Y5304D02*
G01X23523Y5304D01*
G01X23523Y7304D01*
G01X20523Y7304D01*
G01X20523Y9304D01*
G01X23523Y9304D01*
G01X23523Y11304D01*
G01X20523Y11304D01*
G01X20523Y13304D01*
G01X23523Y13304D01*
G01X23523Y17304D01*
G01X19523Y17304D01*
G01X19523Y15304D02*
G01X23523Y15304D01*
G01X18023Y16304D02*
G01X18023Y6304D01*
G01X3023Y6304D01*
G01X3023Y16304D01*
G01X18023Y16304D01*
G54D32*
G01X35316Y14859D02*
G01X36093Y14859D01*
G01X36250Y14909D01*
G01X36355Y15013D01*
G01X36405Y15171D01*
G01X36405Y15275D01*
G01X36355Y15430D01*
G01X36250Y15534D01*
G01X36093Y15585D01*
G01X35316Y15585D01*
G01X35575Y15981D02*
G01X35521Y15981D01*
G01X35417Y16032D01*
G01X35366Y16085D01*
G01X35316Y16189D01*
G01X35316Y16395D01*
G01X35366Y16499D01*
G01X35417Y16553D01*
G01X35521Y16603D01*
G01X35626Y16603D01*
G01X35730Y16553D01*
G01X35887Y16449D01*
G01X36405Y15928D01*
G01X36405Y16657D01*
G01X32893Y4645D02*
G01X32893Y3556D01*
G01X32893Y4645D02*
G01X33360Y4645D01*
G01X33515Y4594D01*
G01X33568Y4544D01*
G01X33619Y4439D01*
G01X33619Y4282D01*
G01X33568Y4178D01*
G01X33515Y4127D01*
G01X33360Y4074D01*
G01X32893Y4074D01*
G01X33962Y4439D02*
G01X34066Y4490D01*
G01X34223Y4645D01*
G01X34223Y3556D01*
G01X25622Y11430D02*
G01X26402Y11430D01*
G01X26557Y11480D01*
G01X26661Y11584D01*
G01X26712Y11742D01*
G01X26712Y11846D01*
G01X26661Y12001D01*
G01X26557Y12105D01*
G01X26402Y12156D01*
G01X25622Y12156D01*
G01X25830Y12499D02*
G01X25777Y12603D01*
G01X25622Y12760D01*
G01X26712Y12760D01*
G54D33*
G01X17023Y7254D02*
G01X17023Y8227D01*
G01X17023Y7254D02*
G01X16423Y7254D01*
G01X17023Y7719D02*
G01X16652Y7719D01*
G01X17023Y8227D02*
G01X16423Y8227D01*
G01X15471Y7391D02*
G01X15562Y7299D01*
G01X15699Y7254D01*
G01X15885Y7254D01*
G01X16022Y7299D01*
G01X16116Y7391D01*
G01X16116Y7485D01*
G01X16070Y7576D01*
G01X16022Y7625D01*
G01X15930Y7670D01*
G01X15654Y7762D01*
G01X15562Y7807D01*
G01X15514Y7853D01*
G01X15471Y7947D01*
G01X15471Y8084D01*
G01X15562Y8178D01*
G01X15699Y8227D01*
G01X15885Y8227D01*
G01X16022Y8178D01*
G01X16116Y8084D01*
G01X15163Y7254D02*
G01X15163Y8227D01*
G01X15163Y7254D02*
G01X14747Y7254D01*
G01X14610Y7299D01*
G01X14566Y7345D01*
G01X14518Y7439D01*
G01X14518Y7576D01*
G01X14566Y7670D01*
G01X14610Y7719D01*
G01X14747Y7762D01*
G01X15163Y7762D01*
G01X13982Y7254D02*
G01X14122Y7299D01*
G01X14165Y7391D01*
G01X14165Y7485D01*
G01X14122Y7576D01*
G01X14028Y7625D01*
G01X13843Y7670D01*
G01X13705Y7719D01*
G01X13614Y7807D01*
G01X13566Y7899D01*
G01X13566Y8039D01*
G01X13614Y8133D01*
G01X13657Y8178D01*
G01X13799Y8227D01*
G01X13982Y8227D01*
G01X14122Y8178D01*
G01X14165Y8133D01*
G01X14213Y8039D01*
G01X14213Y7899D01*
G01X14165Y7807D01*
G01X14074Y7719D01*
G01X13934Y7670D01*
G01X13751Y7625D01*
G01X13657Y7576D01*
G01X13614Y7485D01*
G01X13614Y7391D01*
G01X13657Y7299D01*
G01X13799Y7254D01*
G01X13982Y7254D01*
G01X13215Y7485D02*
G01X13215Y7439D01*
G01X13169Y7345D01*
G01X13121Y7299D01*
G01X13030Y7254D01*
G01X12847Y7254D01*
G01X12753Y7299D01*
G01X12707Y7345D01*
G01X12661Y7439D01*
G01X12661Y7531D01*
G01X12707Y7625D01*
G01X12799Y7762D01*
G01X13261Y8227D01*
G01X12613Y8227D01*
G01X11755Y7391D02*
G01X11800Y7299D01*
G01X11943Y7254D01*
G01X12031Y7254D01*
G01X12171Y7299D01*
G01X12263Y7439D01*
G01X12308Y7670D01*
G01X12308Y7899D01*
G01X12263Y8084D01*
G01X12171Y8178D01*
G01X12031Y8227D01*
G01X11986Y8227D01*
G01X11851Y8178D01*
G01X11755Y8084D01*
G01X11709Y7947D01*
G01X11709Y7899D01*
G01X11755Y7762D01*
G01X11851Y7670D01*
G01X11986Y7625D01*
G01X12031Y7625D01*
G01X12171Y7670D01*
G01X12263Y7762D01*
G01X12308Y7899D01*
G01X10850Y7391D02*
G01X10899Y7299D01*
G01X11036Y7254D01*
G01X11127Y7254D01*
G01X11267Y7299D01*
G01X11358Y7439D01*
G01X11407Y7670D01*
G01X11407Y7899D01*
G01X11358Y8084D01*
G01X11267Y8178D01*
G01X11127Y8227D01*
G01X11082Y8227D01*
G01X10942Y8178D01*
G01X10850Y8084D01*
G01X10805Y7947D01*
G01X10805Y7899D01*
G01X10850Y7762D01*
G01X10942Y7670D01*
G01X11082Y7625D01*
G01X11127Y7625D01*
G01X11267Y7670D01*
G01X11358Y7762D01*
G01X11407Y7899D01*
G01X9789Y7439D02*
G01X9695Y7391D01*
G01X9558Y7254D01*
G01X9558Y8227D01*
G01X9207Y7485D02*
G01X9207Y7439D01*
G01X9159Y7345D01*
G01X9113Y7299D01*
G01X9022Y7254D01*
G01X8836Y7254D01*
G01X8745Y7299D01*
G01X8699Y7345D01*
G01X8651Y7439D01*
G01X8651Y7531D01*
G01X8699Y7625D01*
G01X8790Y7762D01*
G01X9253Y8227D01*
G01X8605Y8227D01*
G01X8300Y7254D02*
G01X8300Y8227D01*
G01X8300Y7254D02*
G01X7703Y7254D01*
G01X8300Y7719D02*
G01X7932Y7719D01*
G54D11*
G01X44804Y16151D02*
G01X45167Y15196D01*
G01X45530Y16151D02*
G01X45167Y15196D01*
G01X46513Y15922D02*
G01X46467Y16013D01*
G01X46376Y16105D01*
G01X46284Y16151D01*
G01X46104Y16151D01*
G01X46013Y16105D01*
G01X45921Y16013D01*
G01X45875Y15922D01*
G01X45830Y15787D01*
G01X45830Y15559D01*
G01X45875Y15422D01*
G01X45921Y15333D01*
G01X46013Y15241D01*
G01X46104Y15196D01*
G01X46284Y15196D01*
G01X46376Y15241D01*
G01X46467Y15333D01*
G01X46513Y15422D01*
G01X47493Y15922D02*
G01X47450Y16013D01*
G01X47359Y16105D01*
G01X47267Y16151D01*
G01X47084Y16151D01*
G01X46996Y16105D01*
G01X46904Y16013D01*
G01X46858Y15922D01*
G01X46813Y15787D01*
G01X46813Y15559D01*
G01X46858Y15422D01*
G01X46904Y15333D01*
G01X46996Y15241D01*
G01X47084Y15196D01*
G01X47267Y15196D01*
G01X47359Y15241D01*
G01X47450Y15333D01*
G01X47493Y15422D01*
G01X45621Y5725D02*
G01X45575Y5814D01*
G01X45484Y5905D01*
G01X45395Y5951D01*
G01X45212Y5951D01*
G01X45121Y5905D01*
G01X45029Y5814D01*
G01X44986Y5725D01*
G01X44940Y5588D01*
G01X44940Y5359D01*
G01X44986Y5224D01*
G01X45029Y5133D01*
G01X45121Y5041D01*
G01X45212Y4996D01*
G01X45395Y4996D01*
G01X45484Y5041D01*
G01X45575Y5133D01*
G01X45621Y5224D01*
G01X45621Y5359D01*
G01X45395Y5359D02*
G01X45621Y5359D01*
G01X45921Y5951D02*
G01X45921Y4996D01*
G01X45921Y5951D02*
G01X46558Y4996D01*
G01X46558Y5951D02*
G01X46558Y4996D01*
G01X46858Y5951D02*
G01X46858Y4996D01*
G01X46858Y5951D02*
G01X47176Y5951D01*
G01X47313Y5905D01*
G01X47404Y5814D01*
G01X47450Y5725D01*
G01X47493Y5588D01*
G01X47493Y5359D01*
G01X47450Y5224D01*
G01X47404Y5133D01*
G01X47313Y5041D01*
G01X47176Y4996D01*
G01X46858Y4996D01*
G54D31*
G75*
G01X29337Y18669D02*
G03X29337Y18669I-254J0D01*
G01*
M00*
M02*
