G04 Layer: TopSolderMaskLayer*
G04 EasyEDA v6.1.52, Mon, 22 Jul 2019 07:30:32 GMT*
G04 48bfd73402ea4c338a6de7f667507198,62ece946848449f3960951035e99d9e0,10*
G04 Gerber Generator version 0.2*
G04 Scale: 100 percent, Rotated: No, Reflected: No *
G04 Dimensions in millimeters *
G04 leading zeros omitted , absolute positions ,3 integer and 3 decimal *
%FSLAX33Y33*%
%MOMM*%
G90*
G71D02*

%ADD39C,1.600200*%
%ADD40C,2.003196*%
%ADD41R,2.003196X2.003196*%
%ADD44R,1.703197X1.203198*%

%LPD*%
G36*
G01X43390Y13258D02*
G01X43390Y14960D01*
G01X51595Y14960D01*
G01X51595Y13258D01*
G01X43390Y13258D01*
G37*
G36*
G01X43383Y10960D02*
G01X43383Y12161D01*
G01X50586Y12161D01*
G01X50586Y10960D01*
G01X43383Y10960D01*
G37*
G36*
G01X43383Y8917D02*
G01X43383Y10121D01*
G01X50586Y10121D01*
G01X50586Y8917D01*
G01X43383Y8917D01*
G37*
G36*
G01X43390Y6118D02*
G01X43390Y7820D01*
G01X51595Y7820D01*
G01X51595Y6118D01*
G01X43390Y6118D01*
G37*
G36*
G01X25996Y17868D02*
G01X25996Y19469D01*
G01X27597Y19469D01*
G01X27597Y17868D01*
G01X25996Y17868D01*
G37*
G54D39*
G01X26797Y16129D03*
G01X26797Y13589D03*
G01X26797Y11049D03*
G01X34417Y11049D03*
G01X34417Y13589D03*
G01X34417Y16129D03*
G01X34417Y18669D03*
G54D40*
G01X39243Y2032D03*
G01X36703Y2032D03*
G01X34163Y2032D03*
G01X31623Y2032D03*
G01X29083Y2032D03*
G54D41*
G01X26543Y2032D03*
G36*
G01X16670Y17853D02*
G01X16670Y20256D01*
G01X17873Y20256D01*
G01X17873Y17853D01*
G01X16670Y17853D01*
G37*
G36*
G01X14658Y17851D02*
G01X14658Y20253D01*
G01X15862Y20253D01*
G01X15862Y17851D01*
G01X14658Y17851D01*
G37*
G36*
G01X12666Y17851D02*
G01X12666Y20253D01*
G01X13868Y20253D01*
G01X13868Y17851D01*
G01X12666Y17851D01*
G37*
G36*
G01X10657Y17851D02*
G01X10657Y20253D01*
G01X11861Y20253D01*
G01X11861Y17851D01*
G01X10657Y17851D01*
G37*
G36*
G01X8661Y17851D02*
G01X8661Y20256D01*
G01X9865Y20256D01*
G01X9865Y17851D01*
G01X8661Y17851D01*
G37*
G36*
G01X6664Y17851D02*
G01X6664Y20253D01*
G01X7868Y20253D01*
G01X7868Y17851D01*
G01X6664Y17851D01*
G37*
G36*
G01X4660Y17853D02*
G01X4660Y20256D01*
G01X5864Y20256D01*
G01X5864Y17853D01*
G01X4660Y17853D01*
G37*
G36*
G01X2664Y17851D02*
G01X2664Y20253D01*
G01X3868Y20253D01*
G01X3868Y17851D01*
G01X2664Y17851D01*
G37*
G36*
G01X16675Y2344D02*
G01X16675Y4747D01*
G01X17879Y4747D01*
G01X17879Y2344D01*
G01X16675Y2344D01*
G37*
G36*
G01X14676Y2344D02*
G01X14676Y4747D01*
G01X15880Y4747D01*
G01X15880Y2344D01*
G01X14676Y2344D01*
G37*
G36*
G01X12677Y2341D02*
G01X12677Y4744D01*
G01X13881Y4744D01*
G01X13881Y2341D01*
G01X12677Y2341D01*
G37*
G36*
G01X10678Y2344D02*
G01X10678Y4747D01*
G01X11882Y4747D01*
G01X11882Y2344D01*
G01X10678Y2344D01*
G37*
G36*
G01X8676Y2344D02*
G01X8676Y4747D01*
G01X9878Y4747D01*
G01X9878Y2344D01*
G01X8676Y2344D01*
G37*
G36*
G01X6675Y2344D02*
G01X6675Y4747D01*
G01X7879Y4747D01*
G01X7879Y2344D01*
G01X6675Y2344D01*
G37*
G36*
G01X4676Y2344D02*
G01X4676Y4747D01*
G01X5880Y4747D01*
G01X5880Y2344D01*
G01X4676Y2344D01*
G37*
G36*
G01X2326Y2344D02*
G01X2326Y4747D01*
G01X4231Y4747D01*
G01X4231Y2344D01*
G01X2326Y2344D01*
G37*
G54D44*
G01X1527Y12314D03*
G01X1524Y14327D03*
G01X1511Y16319D03*
G01X1534Y6286D03*
G01X1529Y8301D03*
G01X1527Y10315D03*
M00*
M02*
