;Layer: Drill PTH
;EasyEDA v6.1.52, Mon, 22 Jul 2019 07:30:32 GMT
;48bfd73402ea4c338a6de7f667507198,62ece946848449f3960951035e99d9e0,10
;Gerber Generator version 0.2
M48
METRIC,LZ,000.000
;Holesize 1 = 0.310 METRIC
T01C0.310
;Holesize 2 = 0.712 METRIC
T02C0.712
;Holesize 3 = 1.200 METRIC
T03C1.200
%
G05
G90
T01
X+043525Y+015331
X+016827Y+012128
X+037231Y+006626
X+010751Y+011049
X+005275Y+011051
X+003258Y+017485
T02
X+026797Y+018669
X+026797Y+016129
X+026797Y+013589
X+026797Y+011049
X+034417Y+011049
X+034417Y+013589
X+034417Y+016129
X+034417Y+018669
T03
X+039243Y+002032
X+036703Y+002032
X+034163Y+002032
X+031623Y+002032
X+029083Y+002032
X+026543Y+002032
M30
