G04 Layer: TopLayer*
G04 EasyEDA v6.1.52, Mon, 22 Jul 2019 07:30:32 GMT*
G04 48bfd73402ea4c338a6de7f667507198,62ece946848449f3960951035e99d9e0,10*
G04 Gerber Generator version 0.2*
G04 Scale: 100 percent, Rotated: No, Reflected: No *
G04 Dimensions in millimeters *
G04 leading zeros omitted , absolute positions ,3 integer and 3 decimal *
%FSLAX33Y33*%
%MOMM*%
G90*
G71D02*

%ADD10C,0.159995*%
%ADD11C,0.203200*%
%ADD12C,0.610006*%
%ADD17R,1.499997X0.999998*%
%ADD19C,1.397000*%
%ADD20C,1.799996*%
%ADD21R,1.799996X1.799996*%

%LPD*%
G54D10*
G01X43525Y15331D02*
G01X43251Y15054D01*
G01X43251Y14109D01*
G01X47492Y14109D02*
G01X43251Y14109D01*
G01X46984Y11559D02*
G01X43240Y11559D01*
G01X43240Y11559D02*
G01X43240Y8717D01*
G01X42527Y8001D01*
G01X32600Y8001D01*
G01X28473Y12128D01*
G01X16827Y12128D01*
G01X37231Y6626D02*
G01X41968Y6626D01*
G01X44861Y9519D01*
G01X46984Y9519D01*
G01X10751Y11049D02*
G01X26797Y11049D01*
G01X5278Y11049D02*
G01X10751Y11049D01*
G01X5278Y11049D02*
G01X5275Y11051D01*
G01X5278Y4889D02*
G01X5278Y11049D01*
G01X47492Y6969D02*
G01X43251Y6969D01*
G01X39243Y2032D02*
G01X43251Y6040D01*
G01X43251Y6969D01*
G01X36703Y2032D02*
G01X39243Y2032D01*
G01X5278Y3545D02*
G01X5278Y4889D01*
G01X5278Y2875D02*
G01X5278Y3545D01*
G01X5278Y2875D02*
G01X5278Y2204D01*
G01X3279Y3545D02*
G01X4371Y3545D01*
G01X4371Y3545D02*
G01X4371Y2453D01*
G01X4620Y2204D01*
G01X5278Y2204D01*
G01X15278Y3545D02*
G01X15278Y4886D01*
G01X15278Y4886D02*
G01X15278Y4889D01*
G01X31305Y4889D01*
G01X34163Y2032D01*
G01X17277Y3545D02*
G01X17277Y2204D01*
G01X17277Y2204D02*
G01X17973Y2204D01*
G01X18978Y3210D01*
G01X30444Y3210D01*
G01X31623Y2032D01*
G01X9278Y3545D02*
G01X9278Y2204D01*
G01X9278Y2204D02*
G01X10591Y889D01*
G01X27940Y889D01*
G01X29083Y2032D01*
G01X3266Y19723D02*
G01X3258Y19715D01*
G01X3258Y17485D01*
G01X3266Y19723D02*
G01X3266Y20396D01*
G01X3266Y19052D02*
G01X3266Y19723D01*
G01X13266Y20396D02*
G01X13266Y20393D01*
G01X3266Y20396D02*
G01X3268Y20396D01*
G01X13266Y20396D01*
G01X13266Y20396D02*
G01X17272Y20396D01*
G01X17272Y19055D02*
G01X17272Y20396D01*
G01X13266Y19052D02*
G01X13266Y20393D01*
G54D11*
G01X40548Y8509D02*
G01X42486Y8971D01*
G01X40548Y9433D02*
G01X42486Y8971D01*
G01X40548Y9433D02*
G01X42486Y9893D01*
G01X40548Y10355D02*
G01X42486Y9893D01*
G01X40548Y10965D02*
G01X40640Y11059D01*
G01X40548Y11150D01*
G01X40454Y11059D01*
G01X40548Y10965D01*
G01X41193Y11059D02*
G01X42486Y11059D01*
G01X40548Y12499D02*
G01X40548Y12313D01*
G01X40640Y12128D01*
G01X40916Y12037D01*
G01X42486Y12037D01*
G01X41193Y11760D02*
G01X41193Y12407D01*
G01X40548Y13108D02*
G01X40640Y13200D01*
G01X40548Y13294D01*
G01X40454Y13200D01*
G01X40548Y13108D01*
G01X41193Y13200D02*
G01X42486Y13200D01*
G01X40548Y13903D02*
G01X42486Y14643D01*
G01X40548Y15379D02*
G01X42486Y14643D01*
G01X41193Y17099D02*
G01X42486Y17099D01*
G01X41470Y17099D02*
G01X41287Y16913D01*
G01X41193Y16728D01*
G01X41193Y16451D01*
G01X41287Y16268D01*
G01X41470Y16083D01*
G01X41747Y15989D01*
G01X41932Y15989D01*
G01X42209Y16083D01*
G01X42395Y16268D01*
G01X42486Y16451D01*
G01X42486Y16728D01*
G01X42395Y16913D01*
G01X42209Y17099D01*
G01X41193Y17708D02*
G01X42118Y17708D01*
G01X42395Y17800D01*
G01X42486Y17985D01*
G01X42486Y18262D01*
G01X42395Y18448D01*
G01X42118Y18724D01*
G01X41193Y18724D02*
G01X42486Y18724D01*
G01X40548Y19334D02*
G01X42486Y19334D01*
G01X40548Y20220D02*
G01X42118Y20220D01*
G01X42395Y20312D01*
G01X42486Y20497D01*
G01X42486Y20683D01*
G01X41193Y19944D02*
G01X41193Y20589D01*
G36*
G01X51492Y14859D02*
G01X51492Y13359D01*
G01X43492Y13359D01*
G01X43492Y14859D01*
G01X51492Y14859D01*
G37*
G36*
G01X50483Y12060D02*
G01X50483Y11060D01*
G01X43483Y11060D01*
G01X43483Y12060D01*
G01X50483Y12060D01*
G37*
G36*
G01X50483Y10020D02*
G01X50483Y9020D01*
G01X43483Y9020D01*
G01X43483Y10020D01*
G01X50483Y10020D01*
G37*
G36*
G01X51492Y7719D02*
G01X51492Y6219D01*
G01X43492Y6219D01*
G01X43492Y7719D01*
G01X51492Y7719D01*
G37*
G36*
G01X17771Y20154D02*
G01X17771Y17954D01*
G01X16771Y17954D01*
G01X16771Y20154D01*
G01X17771Y20154D01*
G37*
G36*
G01X15760Y20153D02*
G01X15760Y17953D01*
G01X14760Y17953D01*
G01X14760Y20153D01*
G01X15760Y20153D01*
G37*
G36*
G01X13767Y20152D02*
G01X13767Y17952D01*
G01X12767Y17952D01*
G01X12767Y20152D01*
G01X13767Y20152D01*
G37*
G36*
G01X11758Y20153D02*
G01X11758Y17953D01*
G01X10758Y17953D01*
G01X10758Y20153D01*
G01X11758Y20153D01*
G37*
G36*
G01X9762Y20153D02*
G01X9762Y17953D01*
G01X8762Y17953D01*
G01X8762Y20153D01*
G01X9762Y20153D01*
G37*
G36*
G01X7767Y20153D02*
G01X7767Y17953D01*
G01X6766Y17953D01*
G01X6766Y20153D01*
G01X7767Y20153D01*
G37*
G36*
G01X5763Y20154D02*
G01X5763Y17954D01*
G01X4762Y17954D01*
G01X4762Y20154D01*
G01X5763Y20154D01*
G37*
G36*
G01X3767Y20153D02*
G01X3767Y17953D01*
G01X2766Y17953D01*
G01X2766Y20153D01*
G01X3767Y20153D01*
G37*
G36*
G01X17777Y4646D02*
G01X17777Y2446D01*
G01X16777Y2446D01*
G01X16777Y4646D01*
G01X17777Y4646D01*
G37*
G36*
G01X15778Y4645D02*
G01X15778Y2445D01*
G01X14777Y2445D01*
G01X14777Y4645D01*
G01X15778Y4645D01*
G37*
G36*
G01X13778Y4644D02*
G01X13778Y2444D01*
G01X12778Y2444D01*
G01X12778Y4644D01*
G01X13778Y4644D01*
G37*
G36*
G01X11779Y4645D02*
G01X11779Y2445D01*
G01X10779Y2445D01*
G01X10779Y4645D01*
G01X11779Y4645D01*
G37*
G36*
G01X9777Y4646D02*
G01X9777Y2446D01*
G01X8776Y2446D01*
G01X8776Y4646D01*
G01X9777Y4646D01*
G37*
G36*
G01X7777Y4645D02*
G01X7777Y2445D01*
G01X6777Y2445D01*
G01X6777Y4645D01*
G01X7777Y4645D01*
G37*
G36*
G01X5777Y4646D02*
G01X5777Y2446D01*
G01X4777Y2446D01*
G01X4777Y4646D01*
G01X5777Y4646D01*
G37*
G36*
G01X4130Y4645D02*
G01X4130Y2446D01*
G01X2429Y2446D01*
G01X2429Y4645D01*
G01X4130Y4645D01*
G37*
G54D17*
G01X1527Y12314D03*
G01X1524Y14327D03*
G01X1511Y16319D03*
G01X1534Y6286D03*
G01X1529Y8301D03*
G01X1527Y10315D03*
G36*
G01X27495Y19367D02*
G01X27495Y17970D01*
G01X26098Y17970D01*
G01X26098Y19367D01*
G01X27495Y19367D01*
G37*
G54D19*
G01X26797Y16129D03*
G01X26797Y13589D03*
G01X26797Y11049D03*
G01X34417Y11049D03*
G01X34417Y13589D03*
G01X34417Y16129D03*
G01X34417Y18669D03*
G54D20*
G01X39243Y2032D03*
G01X36703Y2032D03*
G01X34163Y2032D03*
G01X31623Y2032D03*
G01X29083Y2032D03*
G54D21*
G01X26543Y2032D03*
G54D12*
G01X43525Y15331D03*
G01X16827Y12128D03*
G01X37231Y6626D03*
G01X10751Y11049D03*
G01X5275Y11051D03*
G01X3258Y17485D03*
M00*
M02*
